<?xml version="1.0" encoding="utf-8"?>
<!-- Generator: Adobe Illustrator 20.1.0, SVG Export Plug-In . SVG Version: 6.00 Build 0)  -->
<svg version="1.1" xmlns="http://www.w3.org/2000/svg" xmlns:xlink="http://www.w3.org/1999/xlink" x="0px" y="0px"
	 viewBox="0 0 116.6 116.6" style="enable-background:new 0 0 116.6 116.6;" xml:space="preserve">
<style type="text/css">
	.st0{fill-rule:evenodd;clip-rule:evenodd;fill:#f5f7ff;stroke:#f5f7ff;stroke-width:2;stroke-miterlimit:10;}
	.st1{fill-rule:evenodd;clip-rule:evenodd;fill:#f5f7ff;stroke:#f5f7ff;stroke-miterlimit:10;}
	.st2{fill:#f5f7ff;stroke:#f5f7ff;stroke-miterlimit:10;}
	.st3{fill-rule:evenodd;clip-rule:evenodd;fill:none;stroke:#000000;stroke-width:2;stroke-miterlimit:10;}
	.st4{fill-rule:evenodd;clip-rule:evenodd;}
	.st5{fill:none;stroke:#000000;stroke-width:4;stroke-miterlimit:10;}
	.st6{fill:none;stroke:#f5f7ff;stroke-width:4;stroke-miterlimit:10;}
	.st7{fill:#f5f7ff;}
	.st8{fill-rule:evenodd;clip-rule:evenodd;fill:none;stroke:#f5f7ff;stroke-width:6;stroke-miterlimit:10;}
	.st9{fill-rule:evenodd;clip-rule:evenodd;fill:#f5f7ff;}
</style>
<g id="Layer_1">
	<g>
		<path class="st7" d="M95,40.8C95,40.8,95,40.7,95,40.8L95,40.8l-22-11c-0.1-0.1-0.3-0.1-0.5-0.2c-0.2-0.1-0.4-0.1-0.6-0.1
			c-0.8,0-1.7,0.4-2.1,1.2L57.2,51.2L73,76.9l22-35.7C95.1,41,95.1,40.9,95,40.8z"/>
		<polygon class="st7" points="50.3,46.5 50.3,69.8 71,80.2 		"/>
		<path class="st7" d="M74.1,81.7l17.1,8.5c2.2,1.1,4,0.3,4-1.7v-41L74.1,81.7z"/>
		<path class="st7" d="M46.7,40.8L25.3,30.1c-0.4-0.2-0.8-0.3-1.1-0.3c-0.9,0-1.6,0.7-1.6,1.9v46.2c0,1.2,0.9,2.7,2,3.3l18.8,9.4
			c0.5,0.2,0.9,0.4,1.4,0.4c1.2,0,2-0.9,2-2.4V41C46.8,40.9,46.8,40.8,46.7,40.8z"/>
	</g>
</g>
<g id="Layer_2">
</g>
</svg>
